<?xml version="1.0" standalone="no"?>
<!DOCTYPE svg PUBLIC "-//W3C//DTD SVG 20010904//EN"
 "http://www.w3.org/TR/2001/REC-SVG-20010904/DTD/svg10.dtd">
<svg version="1.0" xmlns="http://www.w3.org/2000/svg"
 width="160.000000pt" height="160.000000pt" viewBox="0 0 160.000000 160.000000"
 preserveAspectRatio="xMidYMid meet">
<g transform="translate(0.000000,160.000000) scale(0.100000,-0.100000)"
fill="#000000" stroke="none">
<path d="M718 1524 c-2 -1 -21 -5 -42 -8 -56 -9 -86 -17 -126 -34 -19 -9 -39
-16 -45 -18 -20 -4 -122 -68 -171 -108 -123 -99 -227 -279 -251 -436 -9 -57
-9 -181 0 -241 14 -94 80 -252 124 -297 7 -7 13 -16 13 -20 0 -11 82 -94 133
-135 79 -64 203 -120 317 -143 45 -9 202 -10 260 -1 107 15 252 85 349 169
160 138 253 353 246 567 -4 108 -8 130 -36 215 -51 152 -151 281 -289 371 -94
62 -157 87 -275 111 -30 6 -202 13 -207 8z"/>
</g>
</svg>
